<svg id="Layer_1" data-name="Layer 1" xmlns="http://www.w3.org/2000/svg" viewBox="0 0 383.27 507.72"><defs><style>.cls-1{fill:#f8eded;}</style></defs><title>logo</title><polygon class="cls-1" points="330.24 70 375.27 0 383.27 507.72 330.24 487.72 330.24 70"/><polygon class="cls-1" points="362.74 18.95 373.04 97.14 191.79 394.21 191.88 243.84 362.74 18.95"/><polygon class="cls-1" points="191.88 244.82 191.63 394.19 9.5 98.93 20.99 21.91 191.88 244.82"/><polygon class="cls-1" points="300.64 124.31 319.83 98.28 319.83 485.24 300.64 469.21 300.64 124.31"/><polygon class="cls-1" points="52.5 70 7.92 0 0 507.72 52.5 487.72 52.5 70"/><polygon class="cls-1" points="81.8 124.31 62.8 98.28 62.8 485.24 81.8 469.21 81.8 124.31"/></svg>